<?xml version="1.0" standalone="no"?>
<!DOCTYPE svg PUBLIC "-//W3C//DTD SVG 20010904//EN"
 "http://www.w3.org/TR/2001/REC-SVG-20010904/DTD/svg10.dtd">
<svg version="1.0" xmlns="http://www.w3.org/2000/svg"
 width="974.000000pt" height="974.000000pt" viewBox="0 0 974.000000 974.000000"
 preserveAspectRatio="xMidYMid meet">
<metadata>
Created by potrace 1.11, written by Peter Selinger 2001-2013
</metadata>
<g transform="translate(0.000000,974.000000) scale(0.100000,-0.100000)"
fill="#000000" stroke="none">
<path d="M4146 8402 c-650 -1027 -2588 -4083 -3500 -5520 -350 -551 -636
-1007 -636 -1012 0 -6 122 -233 272 -505 l271 -495 4591 2 4591 3 -2 546 -2
546 -147 229 c-81 126 -269 420 -419 654 -150 234 -292 457 -317 495 -25 39
-123 192 -218 340 -187 291 -344 537 -542 845 -438 682 -768 1198 -998 1555
-265 412 -1341 2094 -1624 2537 l-151 238 -440 0 -440 0 -289 -458z m1177
-3118 c202 -341 369 -628 373 -637 6 -16 -52 -17 -780 -17 -478 0 -786 4 -786
9 0 5 178 305 396 666 l397 656 17 -28 c9 -15 182 -307 383 -649z m1337 -2266
c79 -134 145 -246 147 -250 2 -5 -855 -8 -1906 -8 l-1910 0 150 250 150 250
1613 0 1614 0 142 -242z"/>
</g>
</svg>
